<svg xmlns="http://www.w3.org/2000/svg" width="1175" height="195" fill="none"><g clip-path="url(#a)"><path fill="#2A2F3D" d="M765.99 25.36c-2.944-2.843-4.4-6.313-4.4-10.438 0-4.124 1.471-7.639 4.4-10.542 2.928-2.919 6.487-4.363 10.632-4.363 4.16 0 7.674 1.459 10.527 4.363 2.868 2.918 4.295 6.433 4.295 10.542 0 4.125-1.472 7.595-4.4 10.439-2.944 2.844-6.413 4.258-10.422 4.258-4.16 0-7.704-1.414-10.632-4.258ZM78.645 152.775c-1.292-2.278-2.298-6.745-3.004-13.416-7.448 10.646-19.342 15.977-35.665 15.977-12.18 0-21.88-2.918-29.119-8.741C3.62 140.758 0 132.673 0 122.294 0 102.266 14.176 90.83 42.544 88l16.759-1.489c5.586-.714 9.596-2.025 12.028-3.946 2.433-1.92 3.65-4.794 3.65-8.621 0-4.691-1.532-8.13-4.61-10.335-3.08-2.203-8.275-3.305-15.588-3.305-7.885 0-13.53 1.31-16.97 3.946-3.439 2.62-5.436 7.132-6.022 13.52H5.151c1.577-25.001 18.2-37.494 49.857-37.494 30.8 0 46.193 11.004 46.193 33.027v58.595c0 9.664 1.501 16.618 4.52 20.877H78.645Zm-11.608-23.557c5.3-4.616 7.944-11.257 7.944-19.924V99.288c-2.583 2.263-6.803 3.767-12.675 4.467l-14.612 1.697c-7.163.849-12.284 2.517-15.362 5.004-3.079 2.486-4.625 6.075-4.625 10.766 0 4.69 1.607 8.338 4.835 10.974 3.229 2.636 7.84 3.946 13.861 3.946 8.47 0 15.333-2.308 20.634-6.924ZM235.52 55.832c8.876 10.513 13.321 24.51 13.321 41.977 0 17.333-4.445 31.256-13.321 41.768-9.025 10.513-21.129 15.77-36.311 15.77-15.047 0-26.505-5.614-34.374-16.827v56.034h-27.091V42.832h25.995v15.77c8.019-12.21 19.837-18.33 35.455-18.33 15.197 0 27.301 5.196 36.326 15.56Zm-42.768 77.342c8.875 0 15.903-3.201 21.054-9.589 5.015-6.254 7.523-15.129 7.523-26.64 0-11.227-2.478-19.775-7.418-25.671-4.941-5.897-11.999-8.846-21.159-8.846-9.026 0-16.054 3.053-21.054 9.158-5.016 6.106-7.524 14.846-7.524 26.208 0 11.511 2.583 20.236 7.734 26.208 4.865 6.12 11.818 9.172 20.844 9.172ZM374.71 55.832c8.875 10.513 13.321 24.51 13.321 41.977 0 17.333-4.446 31.256-13.321 41.768-9.025 10.513-21.129 15.77-36.311 15.77-15.047 0-26.505-5.614-34.374-16.827v56.034h-27.076V42.832h25.994v15.77c8.019-12.21 19.838-18.33 35.456-18.33 15.182 0 27.286 5.196 36.311 15.56Zm-42.769 77.342c8.876 0 15.904-3.201 21.054-9.589 5.016-6.254 7.524-15.129 7.524-26.64 0-11.227-2.478-19.775-7.418-25.671-4.941-5.897-11.999-8.846-21.16-8.846-9.025 0-16.053 3.053-21.054 9.158-5.015 6.106-7.523 14.846-7.523 26.208 0 11.511 2.583 20.236 7.734 26.208 4.865 6.12 11.818 9.172 20.843 9.172ZM412.52 117.826h26.43c.721 6.82 2.974 11.645 6.773 14.489 3.8 2.844 9.776 4.259 17.946 4.259 14.611 0 21.925-4.408 21.925-13.208 0-3.976-1.577-7.029-4.731-9.158-3.153-2.129-8.815-3.901-16.969-5.331l-12.674-2.129c-24.208-3.976-36.312-15.055-36.312-33.236 0-10.364 4.01-18.51 12.029-24.391 8.019-5.897 19.342-8.845 33.954-8.845 31.656 0 47.994 12.433 49.001 37.286h-25.575c-.285-6.537-2.357-11.183-6.232-13.953-3.874-2.77-9.596-4.154-17.194-4.154-12.885 0-19.343 4.259-19.343 12.791 0 3.693 1.427 6.567 4.295 8.622 2.869 2.055 7.584 3.663 14.177 4.794l13.966 2.13c13.47 2.412 23.246 6.254 29.328 11.51 6.082 5.257 9.13 12.568 9.13 21.949 0 11.079-4.294 19.597-12.899 25.568-8.59 5.971-20.694 8.949-36.312 8.949-32.377-.015-49.286-12.657-50.713-37.942ZM697.777 50.933c6.803 7.103 10.212 16.826 10.212 29.186v72.652h-27.076V84.378c0-13.923-6.383-20.877-19.132-20.877-6.878 0-12.419 2.457-16.654 7.356-4.22 4.899-6.337 12.031-6.337 21.413v60.515h-26.866V84.378c0-13.923-6.442-20.877-19.342-20.877-6.728 0-12.209 2.457-16.444 7.356-4.235 4.899-6.337 12.031-6.337 21.413v60.515h-27.076V42.832h26.22v15.77c7.584-12.21 18.126-18.33 31.581-18.33 16.909 0 28.367 6.82 34.389 20.459 8.305-13.64 19.763-20.46 34.374-20.46 12.194 0 21.685 3.559 28.488 10.662ZM915.436 63.29h-34.645v59.444c0 3.559.961 6.045 2.899 7.46 1.937 1.415 5.196 2.129 9.776 2.129h19.777v20.46c-5.871.566-21.144.849-24.718.849-12.029 0-20.799-2.234-26.325-6.716-5.511-4.482-8.274-11.614-8.274-21.413V63.29h-25.124V42.83h25.139V6.14h26.865v36.705h34.645V63.29h-.015ZM1036.52 50.599c6.96 6.894 10.42 16.648 10.42 29.305v72.875h-27.07V84.371c0-13.923-6.95-20.877-20.845-20.877-6.878 0-12.72 2.442-17.51 7.356-4.791 4.9-7.193 11.675-7.193 20.341v61.573h-27.076V6.12h27.076v51.403c8.454-11.51 19.702-17.258 33.728-17.258 12.03 0 21.52 3.454 28.47 10.334Z"/><path fill="#FF6D2D" d="M1174.53 168.528h-105.72v20.46h105.72v-20.46Z"/><path fill="#2A2F3D" d="M790.376 132.322V42.829h-56.945v20.46H763.3v69.033h-29.869v20.46h86.814v-20.46h-29.869Z"/></g><defs><clipPath id="a"><path fill="#fff" d="M0 0h1174.54v194.532H0z"/></clipPath></defs></svg>